<?xml version="1.0" encoding="UTF-8" standalone="no"?>
<!-- Created with Inkscape (http://www.inkscape.org/) -->

<svg
   width="600"
   height="600"
   id="svg5647"
   version="1.1"
   inkscape:version="1.2.2 (b0a8486541, 2022-12-01)"
   sodipodi:docname="zone-maxspeed-empty.svg"
   xmlns:inkscape="http://www.inkscape.org/namespaces/inkscape"
   xmlns:sodipodi="http://sodipodi.sourceforge.net/DTD/sodipodi-0.dtd"
   xmlns="http://www.w3.org/2000/svg"
   xmlns:svg="http://www.w3.org/2000/svg"
   xmlns:rdf="http://www.w3.org/1999/02/22-rdf-syntax-ns#"
   xmlns:cc="http://creativecommons.org/ns#"
   xmlns:dc="http://purl.org/dc/elements/1.1/">
  <defs
     id="defs5649" />
  <sodipodi:namedview
     id="base"
     pagecolor="#ffffff"
     bordercolor="#666666"
     borderopacity="1.0"
     inkscape:pageopacity="0.0"
     inkscape:pageshadow="2"
     inkscape:zoom="1.473188"
     inkscape:cx="255.5682"
     inkscape:cy="288.49"
     inkscape:document-units="px"
     inkscape:current-layer="layer1"
     showgrid="false"
     fit-margin-top="0"
     fit-margin-left="0"
     fit-margin-right="0"
     fit-margin-bottom="0"
     inkscape:window-width="1920"
     inkscape:window-height="1011"
     inkscape:window-x="0"
     inkscape:window-y="0"
     inkscape:window-maximized="1"
     inkscape:showpageshadow="2"
     inkscape:pagecheckerboard="0"
     inkscape:deskcolor="#d1d1d1" />
  <metadata
     id="metadata5652">
    <rdf:RDF>
      <cc:Work
         rdf:about="">
        <dc:format>image/svg+xml</dc:format>
        <dc:type
           rdf:resource="http://purl.org/dc/dcmitype/StillImage" />
        <dc:title />
      </cc:Work>
    </rdf:RDF>
  </metadata>
  <g
     inkscape:label="Livello 1"
     inkscape:groupmode="layer"
     id="layer1"
     transform="translate(0,-452.375)">
    <rect
       style="fill:#ffffff;fill-opacity:1;stroke:#000000;stroke-width:0.99999994;stroke-linecap:butt;stroke-linejoin:miter;stroke-miterlimit:4;stroke-opacity:1;stroke-dasharray:none"
       id="rect3798"
       width="599"
       height="598.99994"
       x="0.49999997"
       y="452.86224"
       inkscape:export-filename="C:\Users\utente\Desktop\CANC30.png"
       inkscape:export-xdpi="90"
       inkscape:export-ydpi="90" />
    <rect
       style="fill:none;stroke:#000000;stroke-width:8.99999905;stroke-linecap:butt;stroke-linejoin:miter;stroke-miterlimit:4;stroke-opacity:1;stroke-dasharray:none"
       id="rect3802"
       width="581.99994"
       height="581.99994"
       x="9"
       y="461.36224"
       rx="31.726187"
       ry="31.726187"
       inkscape:export-filename="C:\Users\utente\Desktop\CANC30.png"
       inkscape:export-xdpi="90"
       inkscape:export-ydpi="90" />
    <g
       style="font-size:128.39006042px;font-style:normal;font-weight:normal;line-height:125%;letter-spacing:0px;word-spacing:0px;fill:#000000;fill-opacity:1;stroke:none;font-family:Sans"
       id="text3804"
       inkscape:export-filename="C:\Users\utente\Desktop\CANC30.png"
       inkscape:export-xdpi="90"
       inkscape:export-ydpi="90">
      <path
         d="m 197.83027,540.2204 36.71702,0 0,14.63822 -17.45929,32.3522 17.84719,0 0,15.66478 -37.87679,0 0,-14.63823 17.46321,-32.61079 -16.69134,0 z"
         style="font-variant:normal;font-stretch:normal;text-align:center;text-anchor:middle;fill:#000000;font-family:CodiceNeroCondensed;-inkscape-font-specification:CodiceNeroCondensed"
         id="path5677" />
      <path
         d="m 267.22077,540.0911 c 7.53066,7e-5 13.47971,3.42453 17.84719,10.2734 3.85019,6.0758 5.77531,13.3936 5.77536,21.95341 -5e-5,8.21771 -1.92517,15.32262 -5.77536,21.31476 -4.53726,6.84633 -10.61562,10.26949 -18.23508,10.26948 -7.01613,10e-6 -12.74969,-3.08097 -17.2007,-9.24292 -4.28124,-5.90595 -6.42186,-13.35304 -6.42185,-22.34132 -1e-5,-8.47361 1.84022,-15.66342 5.52068,-21.56943 4.28122,-7.10486 10.44447,-10.65731 18.48976,-10.65738 z m -0.2586,47.76229 c 2.31168,2e-5 3.93772,-1.53981 4.87811,-4.6195 0.60075,-2.22548 0.90114,-5.90724 0.90117,-11.04527 -3e-5,-4.44837 -0.17113,-7.61424 -0.51328,-9.49761 -0.8568,-4.10879 -2.61213,-6.1632 -5.266,-6.16325 -2.39532,5e-5 -4.02135,1.62608 -4.8781,4.8781 -0.59819,2.13935 -0.89728,5.7336 -0.89725,10.78276 -3e-5,5.48022 0.25596,9.20376 0.76795,11.17065 0.85675,2.9961 2.52588,4.49414 5.0074,4.49412 z"
         style="font-variant:normal;font-stretch:normal;text-align:center;text-anchor:middle;fill:#000000;font-family:CodiceNeroCondensed;-inkscape-font-specification:CodiceNeroCondensed"
         id="path5679" />
      <path
         d="m 345.47414,554.47464 0,48.40096 -18.10187,0 0,-43.13888 c -4e-5,-2.39786 -1.28388,-3.59681 -3.85155,-3.59686 -2.56772,5e-5 -3.85157,1.199 -3.85154,3.59686 l 0,43.13888 -18.10579,0 0,-61.49935 14.76752,0 1.02656,2.69569 c 3.16584,-3.0796 6.88939,-4.61943 11.17065,-4.6195 4.36479,7e-5 8.28032,1.51901 11.74663,4.55681 3.46621,3.03794 5.19934,6.5264 5.19939,10.46539 z"
         style="font-variant:normal;font-stretch:normal;text-align:center;text-anchor:middle;fill:#000000;font-family:CodiceNeroCondensed;-inkscape-font-specification:CodiceNeroCondensed"
         id="path5681" />
      <path
         d="m 399.31349,556.26916 0,28.75925 c -5e-5,2.48412 1.1558,3.72618 3.46756,3.72616 0.94292,2e-5 1.88458,-0.17238 2.82499,-0.5172 l -4.49412,13.99565 c -1.45499,0.42839 -3.03792,0.64258 -4.7488,0.64258 -5.05185,0 -9.24558,-1.75402 -12.5812,-5.26209 -3.2547,3.50807 -7.40664,5.26209 -12.45581,5.26209 -4.27864,0 -7.83109,-1.32695 -10.65737,-3.98085 -3.25208,-2.99607 -4.87811,-7.1467 -4.87811,-12.45189 0,-3.85283 0.89856,-7.53328 2.69569,-11.04136 2.4841,-4.79317 6.29385,-8.43182 11.42926,-10.91597 l 10.65346,-5.13279 c -3e-5,-0.68432 -0.0849,-1.28379 -0.25468,-1.79843 -0.34222,-1.1989 -0.98479,-1.88327 -1.92773,-2.05311 -4.27865,-0.68432 -9.02875,1.79718 -14.25033,7.44449 l -8.72964,-11.04136 c 8.21766,-7.78922 16.47712,-11.68386 24.7784,-11.68393 3.59422,7e-5 7.10358,0.77064 10.52808,2.31171 3.08224,1.36881 5.39264,3.63741 6.93121,6.80583 1.11271,2.39536 1.66909,4.70576 1.66914,6.93122 z m -18.74445,18.74444 c -1.53856,0.68702 -2.9073,1.84287 -4.10623,3.46757 -1.54116,2.05575 -2.31173,4.19637 -2.31171,6.42185 -2e-5,1.45497 0.51326,2.18244 1.53984,2.18242 1.36871,2e-5 2.99475,-0.89985 4.8781,-2.69961 z"
         style="font-variant:normal;font-stretch:normal;text-align:center;text-anchor:middle;fill:#000000;font-family:CodiceNeroCondensed;-inkscape-font-specification:CodiceNeroCondensed"
         id="path5683" />
    </g>
    <path
       sodipodi:type="arc"
       style="fill:#ffffff;fill-opacity:1;stroke:#000000;stroke-width:0.60889953;stroke-miterlimit:4;stroke-opacity:1;stroke-dasharray:none"
       id="path3808-1-2"
       sodipodi:cx="1450.5791"
       sodipodi:cy="727.09308"
       sodipodi:rx="169.70563"
       sodipodi:ry="195.96959"
       d="m 1620.2847,727.09308 a 169.70563,195.96959 0 1 1 -339.4112,0 169.70563,195.96959 0 1 1 339.4112,0 z"
       transform="matrix(0.88241029,0,0,0.76414918,-980.00593,261.76742)" />
    <path
       transform="matrix(0.74393522,0,0,0.64423261,-779.13688,348.95786)"
       d="m 1620.2847,727.09308 a 169.70563,195.96959 0 1 1 -339.4112,0 169.70563,195.96959 0 1 1 339.4112,0 z"
       sodipodi:ry="195.96959"
       sodipodi:rx="169.70563"
       sodipodi:cy="727.09308"
       sodipodi:cx="1450.5791"
       id="path3810-7-4-6"
       style="fill:#ffffff;fill-opacity:1;stroke:#d40000;stroke-width:54.16794205;stroke-miterlimit:4;stroke-opacity:1;stroke-dasharray:none"
       sodipodi:type="arc" />
    <text
       xml:space="preserve"
       style="font-style:normal;font-variant:normal;font-weight:bold;font-stretch:normal;font-size:170.667px;line-height:125%;font-family:'Droid Sans';-inkscape-font-specification:'Droid Sans, Bold';font-variant-ligatures:normal;font-variant-caps:normal;font-variant-numeric:normal;font-variant-east-asian:normal;text-align:center;letter-spacing:0px;word-spacing:0px;text-anchor:middle;fill:#000000;fill-opacity:1;stroke:none;stroke-width:1px;stroke-linecap:butt;stroke-linejoin:miter;stroke-opacity:1"
       x="302.45834"
       y="878.41675"
       id="text1005"><tspan
         sodipodi:role="line"
         id="tspan1312">{{text0}}</tspan></text>
  </g>
</svg>
